<svg width="24" height="24" viewBox="0 0 24 24" fill="none" xmlns="http://www.w3.org/2000/svg">
<path d="M17.71 3.29016C17.111 3.08916 16.481 3.00016 15.85 3.00016C14.46 2.99016 13.111 3.45016 12 4.29916C11.91 4.23016 11.8 4.16916 11.7 4.11016C11.6 4.04916 11.42 3.90016 11.27 3.82016L10.89 3.65016C10.69 3.54016 10.481 3.46016 10.26 3.38916C10.24 3.37016 10.21 3.34916 10.17 3.33016H10.111C9.52002 3.12916 8.91002 3.01916 8.28002 3.00016H8.17002C7.89002 3.00016 7.61102 3.01916 7.33002 3.06016H7.21002C6.91002 3.09916 6.61102 3.16916 6.32102 3.26916C2.59002 4.49016 1.26002 8.54016 2.39002 12.0802C3.03002 13.8892 4.06102 15.5302 5.40102 16.8792C7.35002 18.7592 9.48102 20.4192 11.77 21.8392L12.03 22.0002L12.28 21.8492C14.561 20.4192 16.68 18.7592 18.611 16.8892C19.96 15.5402 20.99 13.8892 21.62 12.0802C22.731 8.54016 21.401 4.49016 17.71 3.29016V3.29016Z" fill="#130F26"/>
</svg>
